<?xml version="1.0" encoding="UTF-8"?>
<svg xmlns="http://www.w3.org/2000/svg" xmlns:xlink="http://www.w3.org/1999/xlink" width="3882" height="3883" viewBox="0 0 3882 3883">
<path fill-rule="nonzero" fill="rgb(100%, 100%, 100%)" fill-opacity="1" d="M 0 0.390625 L 3881.730469 0.390625 L 3881.730469 3882.128906 C 2587.820312 3882.128906 1293.910156 3882.128906 0 3882.128906 C 0 2588.210938 0 1294.308594 0 0.390625 "/>
<path fill-rule="nonzero" fill="rgb(13.330078%, 19.604492%, 24.705505%)" fill-opacity="1" d="M 1941.351562 1137.339844 L 1941.339844 1137.351562 C 1724.710938 1137.339844 1549.089844 1312.960938 1549.089844 1529.601562 L 1549.089844 2017.859375 L 2333.609375 2017.859375 L 2333.609375 1946.078125 L 2044.320312 1946.078125 C 2017.480469 1946.078125 1995.71875 1924.320312 1995.71875 1897.488281 L 1995.71875 1897.480469 C 1995.71875 1870.648438 2017.480469 1848.890625 2044.320312 1848.890625 C 2044.550781 1848.890625 2044.789062 1848.890625 2045.019531 1848.898438 L 2333.609375 1848.898438 L 2333.609375 1745.121094 L 2044.898438 1745.121094 C 2018.070312 1745.121094 1996.308594 1723.359375 1996.308594 1696.53125 L 1996.308594 1696.519531 C 1996.308594 1669.691406 2018.070312 1647.929688 2044.898438 1647.929688 C 2045.140625 1647.929688 2045.371094 1647.941406 2045.609375 1647.941406 L 2333.609375 1647.941406 L 2333.609375 1546.019531 L 2043.570312 1546.019531 C 2016.730469 1546.019531 1994.980469 1524.261719 1994.980469 1497.429688 L 1994.980469 1497.421875 C 1994.980469 1470.589844 2016.730469 1448.828125 2043.570312 1448.828125 C 2043.800781 1448.828125 2044.039062 1448.828125 2044.269531 1448.839844 L 2325.28125 1448.839844 C 2288.050781 1270.941406 2130.300781 1137.339844 1941.351562 1137.339844 Z M 1153.539062 1188.570312 C 1097.789062 1245.261719 1051.820312 1313.441406 1019.601562 1391.449219 C 919.324219 1634.199219 980.542969 1903.390625 1153.671875 2079.628906 L 1241.128906 1992.199219 L 1241.140625 1992.199219 C 1102.25 1850.230469 1053.25 1633.828125 1133.871094 1438.648438 C 1159.679688 1376.179688 1196.429688 1321.53125 1240.980469 1276.03125 L 1241 1276.03125 L 1153.558594 1188.570312 Z M 2729.191406 1189.230469 L 2641.761719 1276.699219 C 2686.320312 1322.199219 2723.070312 1376.839844 2748.878906 1439.320312 C 2829.5 1634.5 2780.5 1850.898438 2641.609375 1992.859375 L 2729.078125 2080.300781 C 2902.199219 1904.050781 2963.421875 1634.859375 2863.148438 1392.109375 C 2830.921875 1314.101562 2784.949219 1245.929688 2729.199219 1189.230469 Z M 916.0625 955.558594 C 831.210938 1041.890625 761.242188 1145.691406 712.179688 1264.449219 C 559.445312 1634.191406 652.640625 2044.210938 916.265625 2312.710938 L 1016.441406 2212.570312 L 1016.449219 2212.570312 C 792.03125 1983.328125 712.832031 1633.78125 843.0625 1318.519531 C 884.773438 1217.550781 944.179688 1129.25 1016.21875 1055.730469 L 916.078125 955.558594 Z M 2966.671875 956.21875 L 2866.539062 1056.398438 C 2938.570312 1129.921875 2997.980469 1218.21875 3039.679688 1319.179688 C 3169.910156 1634.441406 3090.71875 1984 2866.300781 2213.230469 L 2966.480469 2313.378906 C 3230.109375 2044.871094 3323.300781 1634.859375 3170.570312 1265.121094 C 3121.5 1146.359375 3051.539062 1042.558594 2966.679688 956.21875 Z M 1549.089844 2115.039062 L 1549.089844 2140.53125 C 1549.089844 2357.171875 1724.71875 2532.789062 1941.351562 2532.789062 C 2157.980469 2532.789062 2333.609375 2357.171875 2333.609375 2140.53125 L 2333.609375 2115.039062 Z M 1369.140625 2043.589844 L 1369.140625 2162.460938 C 1369.140625 2449.308594 1580.199219 2686.859375 1855.5 2728.28125 L 1855.5 2852.75 C 1855.5 2852.820312 1855.5 2852.890625 1855.5 2852.960938 L 1626.921875 2852.960938 C 1626.921875 2886.464844 1626.921875 2919.964844 1626.921875 2953.464844 C 1836.539062 2953.464844 2046.160156 2953.464844 2255.78125 2953.464844 C 2255.78125 2919.964844 2255.78125 2886.464844 2255.78125 2852.960938 L 2027.199219 2852.960938 C 2027.199219 2852.890625 2027.199219 2852.820312 2027.199219 2852.75 L 2027.199219 2728.28125 C 2302.5 2686.859375 2513.558594 2449.308594 2513.558594 2162.460938 L 2513.558594 2043.601562 L 2387.160156 2043.601562 L 2387.160156 2162.460938 C 2387.160156 2408.679688 2187.570312 2608.28125 1941.351562 2608.28125 C 1695.140625 2608.28125 1495.539062 2408.679688 1495.539062 2162.460938 L 1495.539062 2043.589844 Z M 1369.140625 2043.589844 "/>
</svg>
