<?xml version="1.0" encoding="iso-8859-1"?>
<!-- Uploaded to: SVG Repo, www.svgrepo.com, Generator: SVG Repo Mixer Tools -->
<svg height="800px" width="800px" version="1.1" id="Capa_1" xmlns="http://www.w3.org/2000/svg" xmlns:xlink="http://www.w3.org/1999/xlink" 
	 viewBox="0 0 199.653 199.653" xml:space="preserve">
<g>
	<g>
		<path style="fill:#010002;" d="M131.111,122.83l-1.696-1.378l-21.913-74.605c2.552-2.086,4.001-5.118,4.001-8.41
			c0-6.023-4.903-10.93-10.93-10.93c-6.023,0-10.926,4.907-10.926,10.93c0,3.876,2.047,7.412,5.393,9.38L83.387,87.514l-1.668,1.489
			l0.988,0.805l-31.616,107.62l-0.236,0.809l4.835,1.414l3.847-13.077l66.391-59.13l20.983,71.405l0.24,0.805l4.835-1.414
			l-21.895-74.497L131.111,122.83z M123.338,122.987l-61.112,54.431l24.723-84.15L123.338,122.987z M89.478,88.831L109.37,71.08
			l13.142,44.725L89.478,88.831z M90.506,81.154l9.362-31.837c0.952,0.111,1.95,0.011,3.042-0.24l4.892,16.652L90.506,81.154z"/>
		<path style="fill:#010002;" d="M121.09,33.945c0,2.348-0.612,4.667-1.761,6.71l-0.2,0.673l2.215,2.605l0.616-1.009
			c1.675-2.709,2.555-5.819,2.555-8.979c0-3.003-0.809-5.97-2.33-8.582l-0.412-0.709l-0.723,0.404
			c-0.472,0.258-0.963,0.483-1.464,0.673l-0.952,0.347l0.523,0.87C120.421,29.067,121.09,31.487,121.09,33.945z"/>
		<path style="fill:#010002;" d="M126.713,50.816c0.125,0.132,0.258,0.254,0.379,0.39l0.651,0.719l0.619-0.759
			c4.005-4.867,6.209-10.987,6.209-17.221c0-5.662-1.768-11.116-5.118-15.79l-0.676-0.938l-0.684,0.934
			c-0.354,0.49-0.719,0.981-1.099,1.453l-0.387,0.487l0.351,0.512c2.741,3.983,4.184,8.589,4.184,13.346
			c0,5.458-1.814,10.597-5.25,14.874l-0.401,0.505l0.712,0.963C126.369,50.469,126.541,50.644,126.713,50.816z"/>
		<path style="fill:#010002;" d="M142.066,33.945c0,8.213-2.985,16.219-8.403,22.536l-0.537,0.626l0.619,0.548
			c0.301,0.268,0.612,0.53,0.92,0.784l1.066,0.909l0.544-0.637c5.944-6.932,9.219-15.729,9.219-24.769
			c0-9.337-3.446-18.342-9.692-25.349l-0.691-0.787l-0.616,0.855c-0.351,0.487-0.694,0.991-1.041,1.507l-0.365,0.53l0.422,0.487
			C139.031,17.515,142.066,25.592,142.066,33.945z"/>
		<path style="fill:#010002;" d="M152.985,33.945c0,10.794-3.862,21.28-10.88,29.536l-0.558,0.662l0.676,0.533
			c0.394,0.326,0.791,0.662,1.174,0.995l0.777,0.673l0.548-0.644c7.541-8.872,11.696-20.145,11.696-31.755
			c0-12.39-4.652-24.232-13.099-33.348L142.764,0l-0.616,0.533c-0.29,0.251-0.583,0.523-0.863,0.784l-1.081,0.984l0.58,0.626
			C148.655,11.402,152.985,22.418,152.985,33.945z"/>
		<path style="fill:#010002;" d="M78.305,43.934l2.316-2.745l-0.297-0.53c-1.152-2.044-1.764-4.363-1.764-6.71
			c0-2.462,0.673-4.882,1.936-7l0.519-0.87l-0.948-0.347c-0.501-0.193-0.991-0.415-1.464-0.673l-0.719-0.404l-0.412,0.709
			c-1.532,2.613-2.333,5.579-2.333,8.582c0,3.157,0.88,6.267,2.552,8.979L78.305,43.934z"/>
		<path style="fill:#010002;" d="M71.294,51.167l0.612,0.759l0.655-0.719c0.125-0.136,0.251-0.258,0.383-0.39
			c0.172-0.172,0.344-0.347,0.548-0.587l0.673-0.902l-0.404-0.505c-3.432-4.277-5.254-9.416-5.254-14.874
			c0-4.756,1.449-9.362,4.184-13.346l0.354-0.512l-0.39-0.487c-0.383-0.469-0.744-0.963-1.102-1.453l-0.68-0.934l-0.673,0.941
			c-3.346,4.67-5.118,10.128-5.118,15.79C65.081,40.18,67.29,46.296,71.294,51.167z"/>
		<path style="fill:#010002;" d="M63.381,58.715l0.544,0.637l1.066-0.909c0.308-0.254,0.616-0.519,0.916-0.784l0.623-0.548
			l-0.544-0.626c-5.418-6.317-8.4-14.319-8.4-22.536c0-8.353,3.038-16.431,8.553-22.754l0.422-0.487l-0.361-0.533
			c-0.347-0.519-0.698-1.02-1.041-1.507l-0.612-0.855L63.85,8.6c-6.252,7.007-9.692,16.012-9.692,25.349
			C54.162,42.986,57.433,51.786,63.381,58.715z"/>
		<path style="fill:#010002;" d="M55.612,66.227l0.641-0.551c0.39-0.333,0.784-0.673,1.185-0.995l0.673-0.533l-0.558-0.662
			c-7.022-8.256-10.887-18.742-10.887-29.536c0-11.531,4.338-22.543,12.207-31.014l0.576-0.626l-1.07-0.984
			c-0.29-0.261-0.58-0.533-0.87-0.784l-0.619-0.533l-0.548,0.598c-8.45,9.115-13.106,20.958-13.106,33.348
			c0,11.61,4.155,22.883,11.699,31.755L55.612,66.227z"/>
	</g>
</g>
</svg>