<?xml version="1.0" encoding="UTF-8"?>
<svg width="800px" height="800px" viewBox="0 0 24 24" fill="none" xmlns="http://www.w3.org/2000/svg">
    <g id="SVGRepo_bgCarrier" stroke-width="0" />
    <g id="SVGRepo_tracerCarrier" stroke-linecap="round" stroke-linejoin="round" />
    <g id="SVGRepo_iconCarrier">
        <path d="M21 8H17.8174M21 12H18M21 16H17.8174M6.18257 8H3M8 6.18257V3M8 21L8 17.8174M12 6V3M12 21V18M16 6.18257V3M16 21V17.8174M6 12H3M6.18257 16H3M10.8 18H13.2C14.8802 18 15.7202 18 16.362 17.673C16.9265 17.3854 17.3854 16.9265 17.673 16.362C18 15.7202 18 14.8802 18 13.2V10.8C18 9.11984 18 8.27976 17.673 7.63803C17.3854 7.07354 16.9265 6.6146 16.362 6.32698C15.7202 6 14.8802 6 13.2 6H10.8C9.11984 6 8.27976 6 7.63803 6.32698C7.07354 6.6146 6.6146 7.07354 6.32698 7.63803C6 8.27976 6 9.11984 6 10.8V13.2C6 14.8802 6 15.7202 6.32698 16.362C6.6146 16.9265 7.07354 17.3854 7.63803 17.673C8.27976 18 9.11984 18 10.8 18ZM10 10H14V14H10V10Z" stroke="#000000" stroke-width="2" stroke-linecap="round" stroke-linejoin="round"/>
    </g>
</svg>