<svg xmlns="http://www.w3.org/2000/svg" viewBox="0 0 512 512"><title>tiger</title><g style="isolation:isolate"><g id="Layer_1" data-name="Layer 1"><path d="M512,256c0,141.39-114.62,256-256,256S0,397.39,0,256,114.62,0,256,0,512,114.61,512,256Z" fill="#37bc9b"/><path id="_2" data-name="2" d="M506.13,264.2q-1.43-1.57-3-3c-1-1-2-2.05-3-3s-2-2.07-3-3-2-2.05-3-3a42.75,42.75,0,0,0-3-3,42.32,42.32,0,0,0-3-3c-.95-1-1.94-2-3-3s-2-2.07-3-3-1.95-2-3-3a42.61,42.61,0,0,0-3-3c-1-1.06-2-2.07-3-3s-2-2.05-3-3-2-2.06-3-3a42.43,42.43,0,0,0-3-3c-1-1.05-2-2.06-3-3a41.73,41.73,0,0,0-3-3,40.87,40.87,0,0,0-3-3c-1-1.05-2-2.06-3-3s-2-2.06-3-3a41.82,41.82,0,0,0-3-3q-1.43-1.58-3-3c-1-1.05-2-2.06-3-3s-2-2.07-3-3-2-2.05-3-3a42.07,42.07,0,0,0-3-3,42.87,42.87,0,0,0-3-3c-1-1.05-2-2.06-3-3s-2-2.05-3-3a42.07,42.07,0,0,0-3-3,42.36,42.36,0,0,0-3-3q-1.43-1.58-3-3c-1-1.05-2-2.05-3-3-10.32-11.39-27.16-17.69-45.14-15.24-1.54.21-3.06.49-4.54.83-.52.11-1,.25-1.53.37-.94.24-1.87.49-2.8.77-.63.19-1.24.39-1.85.6s-1.48.54-2.21.83-1.37.52-2,.82c-.43.19-.83.4-1.25.6a51.8,51.8,0,0,0-5.27,2.83l-.32.18c-1,.59-1.87,1.22-2.76,1.86l-.43.31q-1.39,1-2.7,2.1c-22.37-11.07-49-17.52-77.67-17.52h-.19v.06c-.92,0-1.82-.06-2.73-.06-1.41,0-2.81.05-4.23.08h0c-27.83.62-53.66,7.28-75.31,18.35a54.25,54.25,0,0,0-28.76-13c-27.23-3.71-51.95,12.57-55.19,36.38-1.85,13.62,3.75,26.72,14,36.15.95,1,2,2,3,3s2,2.07,3,3,2,2,3,3l.35.37A84.36,84.36,0,0,0,113,256a85.74,85.74,0,0,0,6.33,32.21,48.74,48.74,0,0,0-13.6,11.35,2.51,2.51,0,0,0,1.92,4.13,2.4,2.4,0,0,0,.61-.14,2.5,2.5,0,0,0,2.41,3.16,2.67,2.67,0,0,0,.61-.13,2.49,2.49,0,0,0,2.41,3.15,2.56,2.56,0,0,0,.61-.13,2.5,2.5,0,0,0,.79,2.56,2.55,2.55,0,0,0,1.62.59,2.41,2.41,0,0,0,.61-.13,2.5,2.5,0,0,0,2.41,3.16,2.43,2.43,0,0,0,.61-.13,2.49,2.49,0,0,0,.32,2c-4.79,6.15-8,13.87-9.46,23.16a2.51,2.51,0,0,0,2.09,2.87l.39,0a2.37,2.37,0,0,0,.58-.11c0,.08,0,.15,0,.23a2.5,2.5,0,0,0,2.09,2.87,2.15,2.15,0,0,0,.39,0,2.34,2.34,0,0,0,.59-.11c0,.08,0,.15,0,.23a2.5,2.5,0,0,0,2.08,2.87,2.53,2.53,0,0,0,.4,0,2.21,2.21,0,0,0,.58-.1l0,.22a2.52,2.52,0,0,0,2.09,2.87,2.79,2.79,0,0,0,.39,0,2.55,2.55,0,0,0,.6-.11,2,2,0,0,0-.05.23,2.5,2.5,0,0,0,2.08,2.87,2.55,2.55,0,0,0,.4,0,2.3,2.3,0,0,0,.58-.1c0,.08,0,.15,0,.22a2.5,2.5,0,0,0,2.08,2.87l.39,0a2.58,2.58,0,0,0,.59-.1c0,.07,0,.14,0,.22a2.51,2.51,0,0,0,2.08,2.87l.4,0a2.37,2.37,0,0,0,.58-.11c0,.08,0,.15,0,.22a2.51,2.51,0,0,0,2.09,2.88,2.73,2.73,0,0,0,.39,0,2.5,2.5,0,0,0,.58-.11c0,.08,0,.15,0,.22a2.5,2.5,0,0,0,2.09,2.87,2.13,2.13,0,0,0,.39,0,2.2,2.2,0,0,0,.58-.1c0,.08,0,.15,0,.22a2.5,2.5,0,0,0,2.09,2.87l.39,0a2.54,2.54,0,0,0,.58-.1c0,.08,0,.14,0,.22a2.51,2.51,0,0,0,2.09,2.88l.39,0a2.42,2.42,0,0,0,.59-.11c0,.08,0,.15,0,.23a2.49,2.49,0,0,0,2.09,2.87l.39,0a2.16,2.16,0,0,0,.58-.11c0,.08,0,.15,0,.23a2.51,2.51,0,0,0,2.08,2.88l.39,0a2.46,2.46,0,0,0,.6-.11c0,.08,0,.14,0,.23a2.49,2.49,0,0,0,2.08,2.87,2.87,2.87,0,0,0,.4,0,2.21,2.21,0,0,0,.58-.11c0,.08,0,.15,0,.22a2.5,2.5,0,0,0,2.08,2.88,2.89,2.89,0,0,0,.39,0,2.52,2.52,0,0,0,.58-.1c0,.08,0,.14,0,.22a2.5,2.5,0,0,0,2.08,2.87l.4,0a2.39,2.39,0,0,0,.59-.1c0,.08,0,.14,0,.22a2.51,2.51,0,0,0,2.08,2.87,3.45,3.45,0,0,0,.4,0,2.61,2.61,0,0,0,.59-.11,1.89,1.89,0,0,0,0,.22,2.48,2.48,0,0,0,2.08,2.87,2.62,2.62,0,0,0,.4,0,2.38,2.38,0,0,0,.58-.11c0,.07,0,.15,0,.22a2.5,2.5,0,0,0,2.09,2.87l.4,0a2.55,2.55,0,0,0,.59-.11l0,.22a2.52,2.52,0,0,0,2.48,2.91,2.58,2.58,0,0,0,.59-.11c0,.08,0,.14,0,.22a2.5,2.5,0,0,0,2.09,2.87l.4,0a2.62,2.62,0,0,0,.59-.11l0,.23a2.51,2.51,0,0,0,2.09,2.87,2.48,2.48,0,0,0,.39,0,2.37,2.37,0,0,0,.59-.11c0,.08,0,.14,0,.22a2.5,2.5,0,0,0,2.09,2.87,2.44,2.44,0,0,0,.39,0,2.82,2.82,0,0,0,.58-.1c0,.07,0,.14,0,.22a2.51,2.51,0,0,0,2.09,2.87l.4,0a2.4,2.4,0,0,0,.58-.11c0,.08,0,.15,0,.23a2.5,2.5,0,0,0,2.09,2.87,1.93,1.93,0,0,0,.4,0,2.37,2.37,0,0,0,.58-.11l0,.22a2.49,2.49,0,0,0,2.48,2.9,2.4,2.4,0,0,0,.59-.1c0,.08,0,.15,0,.23a2.51,2.51,0,0,0,2.08,2.87,2.94,2.94,0,0,0,.39,0,2.4,2.4,0,0,0,.59-.11c0,.08,0,.15,0,.23a2.5,2.5,0,0,0,2.08,2.86,2.23,2.23,0,0,0,.4,0,2.42,2.42,0,0,0,.59-.11c0,.08,0,.15,0,.23a2.5,2.5,0,0,0,2.09,2.87l.39,0a2.34,2.34,0,0,0,.59-.1c0,.08,0,.15,0,.22a2.5,2.5,0,0,0,2.09,2.87,2.35,2.35,0,0,0,.39,0,2.28,2.28,0,0,0,.59-.11c0,.08,0,.15,0,.23a2.49,2.49,0,0,0,2.09,2.87,2.4,2.4,0,0,0,.39,0,2.35,2.35,0,0,0,.58-.11c0,.07,0,.15,0,.23a2.5,2.5,0,0,0,2.09,2.87,1.89,1.89,0,0,0,.39,0,2.44,2.44,0,0,0,.59-.11l0,.23a2.5,2.5,0,0,0,2.09,2.87l.4,0a2.28,2.28,0,0,0,.59-.11,2.25,2.25,0,0,0,0,.23,2.51,2.51,0,0,0,2.08,2.87,2.56,2.56,0,0,0,.4,0,2.5,2.5,0,0,0,.58-.11c0,.07,0,.14,0,.22a2.53,2.53,0,0,0,2.48,2.91,2.21,2.21,0,0,0,.58-.11c0,.08,0,.15,0,.22a2.51,2.51,0,0,0,2.48,2.9,2.39,2.39,0,0,0,.59-.1c0,.08,0,.15,0,.23a2.5,2.5,0,0,0,2.09,2.87l.4,0a2.4,2.4,0,0,0,.59-.11c0,.08,0,.16,0,.23a2.49,2.49,0,0,0,2.09,2.87,2.43,2.43,0,0,0,.39,0,2.39,2.39,0,0,0,.59-.11c0,.08,0,.15,0,.23a2.49,2.49,0,0,0,2.08,2.87,2.21,2.21,0,0,0,.39,0,2.24,2.24,0,0,0,.59-.11l0,.23a2.51,2.51,0,0,0,2.09,2.87l.39,0a2.44,2.44,0,0,0,.59-.11,1.93,1.93,0,0,0,0,.23,2.5,2.5,0,0,0,2.08,2.87,2.19,2.19,0,0,0,.39,0,2.37,2.37,0,0,0,.59-.11c0,.08,0,.15,0,.23a2.5,2.5,0,0,0,2.09,2.87l.4,0a2.39,2.39,0,0,0,.58-.1c0,.08,0,.14,0,.23a2.51,2.51,0,0,0,2.08,2.87,2.94,2.94,0,0,0,.39,0,2.49,2.49,0,0,0,.58-.1c0,.07,0,.14,0,.22a2.5,2.5,0,0,0,2.09,2.87l.4,0a2.35,2.35,0,0,0,.58-.11c0,.08,0,.15,0,.23a2.5,2.5,0,0,0,2.09,2.87,2.11,2.11,0,0,0,.39,0,2.4,2.4,0,0,0,.59-.1c0,.08,0,.15,0,.22a2.5,2.5,0,0,0,2.08,2.87l.4,0a2.63,2.63,0,0,0,.58-.1l0,.21a2.52,2.52,0,0,0,2.09,2.88,3.26,3.26,0,0,0,.39,0,2.6,2.6,0,0,0,.59-.11c0,.08,0,.15,0,.22a2.49,2.49,0,0,0,2.08,2.87,2.53,2.53,0,0,0,.4,0,2.17,2.17,0,0,0,.58-.11c0,.08,0,.15,0,.22a2.51,2.51,0,0,0,2.09,2.87,2.38,2.38,0,0,0,.39,0,2.52,2.52,0,0,0,.59-.1c0,.08,0,.14,0,.22a2.5,2.5,0,0,0,2.08,2.87l.4,0a2.39,2.39,0,0,0,.59-.1c0,.08,0,.15,0,.22a2.51,2.51,0,0,0,2.09,2.88,2.73,2.73,0,0,0,.39,0,2.35,2.35,0,0,0,.58-.11c0,.08,0,.15,0,.22a2.49,2.49,0,0,0,2.08,2.87,2.43,2.43,0,0,0,.39,0,2.36,2.36,0,0,0,.59-.1c0,.08,0,.15,0,.23a2.51,2.51,0,0,0,2.09,2.87l.4,0a2.49,2.49,0,0,0,.59-.11c0,.08,0,.15,0,.23a2.5,2.5,0,0,0,2.08,2.87,2.41,2.41,0,0,0,.39,0,2.49,2.49,0,0,0,.58-.11,2.2,2.2,0,0,1,0,.22,2.5,2.5,0,0,0,2.09,2.87,2.53,2.53,0,0,0,.4,0,2.36,2.36,0,0,0,.58-.1c0,.08,0,.14,0,.22a2.5,2.5,0,0,0,2.08,2.87l.39,0a2.65,2.65,0,0,0,.6-.1c0,.08,0,.14-.05.22a2.43,2.43,0,0,0,0,.84c125.44-11.88,224.51-114.23,231.2-241.12-.79-.84-1.6-1.68-2.47-2.47A42.55,42.55,0,0,0,506.13,264.2Z" fill="#e3e2e1" style="mix-blend-mode:multiply"/><g id="_2-2" data-name="2"><g id="icon"><path d="M92.51,188.64c-3.24,23.8,16.2,46.11,43.44,49.82s51.94-12.58,55.19-36.38S174.93,156,147.7,152.26,95.75,164.84,92.51,188.64Z" fill="#ffce54"/><path d="M110.65,194.49c-2.35,17.22,11.73,33.36,31.44,36.06s37.6-9.1,39.95-26.33-11.73-33.37-31.44-36.06S113,177.26,110.65,194.49Z" fill="#f6bb42"/><path d="M419.48,188.64c3.25,23.8-16.2,46.11-43.43,49.82s-51.95-12.58-55.19-36.38S337.07,156,364.3,152.26,416.23,164.84,419.48,188.64Z" fill="#ffce54"/><path d="M401.34,194.49c2.35,17.22-11.73,33.36-31.43,36.06s-37.61-9.1-40-26.33,11.73-33.37,31.44-36.06S399,177.26,401.34,194.49Z" fill="#f6bb42"/><ellipse cx="256" cy="256" rx="143.03" ry="109.15" fill="#ffce54"/><path d="M306.19,184.49c-.87,1.86-26-4.39-45.55-4.56,0,5-.17,10.72-.46,16.41,15.52.84,34,9,32.83,11.41-.9,1.94-19.22-2-33.42-2.14-1,12.44-2.5,22.79-4.22,22.79s-3.26-10.35-4.22-22.8c-14.14.12-32,3.7-32.79,2.15-1.32-2.66,16.82-10.45,32.2-11.4-.29-5.69-.45-11.4-.46-16.43-19.44.19-44.17,5.93-44.92,4.57-1.43-2.94,24.21-13.13,45.08-13.88.25-8,.78-16.57,1.51-23.69,1.42,0,2.82-.08,4.23-.08,1,0,2,0,3,.06.74,7.12,1.27,15.69,1.52,23.7C281.47,171.26,307.42,182,306.19,184.49ZM121.51,224.62c-.68-.58-1.27-1.14-1.83-1.71a86.71,86.71,0,0,0-4.17,12.61c22.83,9.28,34.62,3.82,34.44,1.55C150.65,232.31,137.93,236,121.51,224.62ZM113,254c0,.68-.08,1.35-.08,2a84.36,84.36,0,0,0,.69,10.61c20.77,3.31,30-3.28,29.48-5.33C143,256.46,131.15,262.32,113,254ZM399,254c-18.11,8.35-29.95,2.49-30.09,7.29-.53,2.05,8.71,8.64,29.48,5.33A84.36,84.36,0,0,0,399,256C399,255.33,399,254.65,399,254Zm-2.48-18.46a86.07,86.07,0,0,0-4.15-12.61c-.56.56-1.15,1.13-1.83,1.71C374.07,236,361.35,232.31,362,237.07,361.86,239.34,373.65,244.8,396.47,235.52Z" fill="#b98c32"/><path d="M287.36,279.62c0,12.13-14.05,21.95-31.37,21.95s-31.35-9.82-31.35-21.95,14-22,31.35-22S287.36,267.5,287.36,279.62Z" fill="#7f4438"/><path d="M258,308.82c5.68,6.14,15.91,15.35,26,14.47,10.2-1.29,14.5-10.54,14.61-9.93-.44-.63-2,8.23-12.69,12.33-11.36,3.52-24.37-5-32-13.29" fill="#7f4438"/><path d="M256,313.35a2.74,2.74,0,0,1-2.74-2.73V295.94a2.73,2.73,0,0,1,5.47,0v14.68a2.74,2.74,0,0,1-2.73,2.73Z" fill="#7f4438"/><path d="M258,312.4c-6.36,6.87-18.48,16-30.52,13.57-11.66-3.31-13.84-13.28-14.18-12.61.22-.61,3.82,7.64,13.35,9.69,9.52,1.81,20.34-6.78,27.25-14.23" fill="#7f4438"/><path d="M153.2,289.11a2.51,2.51,0,0,0,1.69-4.73c-.28-.11-28.23-9.71-49.18,15.17a2.51,2.51,0,0,0,1.92,4.13,2.48,2.48,0,0,0,1.92-.9C128.19,280.62,152.19,288.74,153.2,289.11Z" fill="#7f4438"/><path d="M168.61,306.77a2.51,2.51,0,0,0,1-4.92c-.94-.19-23.22-4.41-40.41,7.58-9.71,6.77-15.76,17.32-18,31.34a2.51,2.51,0,0,0,2.09,2.87l.39,0a2.5,2.5,0,0,0,2.47-2.11c2-12.61,7.36-22,15.89-28C147.43,302.78,168.4,306.73,168.61,306.77Z" fill="#7f4438"/><path d="M173.86,320.22c-.63-.09-15.71-2-25.68,7.72-6.63,6.44-9.29,16.31-7.92,29.34a2.51,2.51,0,0,0,2.49,2.24H143a2.51,2.51,0,0,0,2.23-2.76c-1.2-11.4,1-19.87,6.41-25.19,8.19-8,21.42-6.39,21.54-6.37a2.51,2.51,0,1,0,.66-5Z" fill="#7f4438"/><path d="M406.3,299.55c-20.95-24.89-48.9-15.27-49.18-15.17a2.51,2.51,0,0,0,1.69,4.73,41.16,41.16,0,0,1,43.65,13.68,2.48,2.48,0,0,0,1.92.9,2.51,2.51,0,0,0,1.92-4.13Z" fill="#7f4438"/><path d="M382.83,309.42c-17.19-12-39.47-7.76-40.41-7.58a2.51,2.51,0,0,0,1,4.92c.21,0,21.11-4,36.57,6.77,8.55,6,13.9,15.39,15.91,28a2.51,2.51,0,0,0,2.48,2.11l.39,0a2.52,2.52,0,0,0,2.09-2.87C398.59,326.74,392.54,316.19,382.83,309.42Z" fill="#7f4438"/><path d="M338.14,320.22a2.51,2.51,0,1,0,.66,5c.13,0,13.29-1.66,21.52,6.34,5.47,5.32,7.63,13.8,6.43,25.21A2.5,2.5,0,0,0,369,359.5h.26a2.51,2.51,0,0,0,2.49-2.24c1.37-13-1.29-22.89-7.92-29.34C353.85,318.24,338.78,320.13,338.14,320.22Z" fill="#7f4438"/><path d="M193.08,227.42a11.63,11.63,0,0,0-1.27.14,6.22,6.22,0,0,1,2,6,7.15,7.15,0,0,1-7.8,5.7,6,6,0,0,1-4.33-2.77,14,14,0,0,0-.64,5A12.82,12.82,0,1,0,206.63,240C206.21,232.67,200.14,227,193.08,227.42Z" fill="#7f4438"/><path d="M192.55,218c-12.06.68-21.24,11.43-20.52,24s11.05,22.17,23.11,21.5,21.23-11.43,20.5-24S204.59,217.33,192.55,218Zm2,36.07A13.1,13.1,0,0,1,181,241.48a14,14,0,0,1,.64-5,6,6,0,0,0,4.33,2.77,7.15,7.15,0,0,0,7.8-5.7,6.22,6.22,0,0,0-2-6,11.63,11.63,0,0,1,1.27-.14c7.06-.41,13.13,5.24,13.55,12.6A13.09,13.09,0,0,1,194.6,254.09Z" fill="#f4f0df"/><path d="M318.69,227.44a12,12,0,0,0-2.67.15,6.17,6.17,0,0,1,2.24,6.17,7.13,7.13,0,0,1-7.78,5.69,6,6,0,0,1-4.59-3.23,13.92,13.92,0,0,0-.81,3.88,12.94,12.94,0,0,0,11.95,14c7.06.37,13.16-5.32,13.61-12.67A12.92,12.92,0,0,0,318.69,227.44Z" fill="#7f4438"/><path d="M319.27,218c-12-.62-22.42,9-23.21,21.61s8.34,23.24,20.39,23.87,22.42-9,23.22-21.6S331.32,218.65,319.27,218Zm11.36,23.41c-.45,7.35-6.54,13-13.61,12.67a12.94,12.94,0,0,1-11.95-14,13.92,13.92,0,0,1,.81-3.88,6,6,0,0,0,4.59,3.23,7.13,7.13,0,0,0,7.78-5.69,6.17,6.17,0,0,0-2.24-6.17,12,12,0,0,1,2.67-.15A12.92,12.92,0,0,1,330.63,241.44Z" fill="#f4f0df"/></g><g id="shadow"><path d="M362.24,331.44l.09.09c5.47,5.32,7.63,13.8,6.43,25.21A2.51,2.51,0,0,0,371,359.5h.26a2.5,2.5,0,0,0,2.49-2.24c1.36-12.83-1.23-22.58-7.65-29A116.76,116.76,0,0,0,381,312.92c.33.21.67.39,1,.62,8.55,6,13.9,15.39,15.92,28a2.5,2.5,0,0,0,2.47,2.11l.4,0a2.51,2.51,0,0,0,2.08-2.87c-2.23-14-8.29-24.57-18-31.34-.27-.18-.54-.33-.81-.51a98.15,98.15,0,0,0,9.4-15.71,44.62,44.62,0,0,1,11.05,9.58,2.51,2.51,0,0,0,3.84-3.23,49.05,49.05,0,0,0-12.85-11,86.49,86.49,0,0,0,5.81-22c0-.11,0-.21,0-.32.2-1.63.37-3.28.48-4.93s.17-3.56.17-5.35a85,85,0,0,0-4-25.45c14.87-9.33,23.75-25.24,21.48-41.9-3.24-23.8-27.95-40.09-55.18-36.38a54.38,54.38,0,0,0-27.7,12.1c-22.37-11.07-49-17.52-77.67-17.52h-.19v218.3h.19C299.56,365.15,336.19,352.2,362.24,331.44Z" fill="#eeece7" style="mix-blend-mode:multiply"/></g></g></g></g></svg>