<svg xmlns="http://www.w3.org/2000/svg" viewBox="0 0 512 512"><title>elephant</title><g style="isolation:isolate"><g id="Layer_1" data-name="Layer 1"><path d="M512,256c0,141.38-114.62,256-256,256S0,397.38,0,256,114.62,0,256,0,512,114.61,512,256Z" fill="#e9573f"/><path id="_12" data-name="12" d="M500.49,232.17c-1.94-2.06-3.93-4.1-6-6-1.93-2.07-3.93-4.11-6-6-1.93-2.08-3.92-4.1-6-6-1.94-2.08-3.93-4.11-6-6-1.94-2.07-3.94-4.09-6-6-1.93-2.07-3.93-4.09-6-6-1.94-2.08-3.94-4.12-6.05-6.06-1.94-2.08-3.94-4.11-6-6-1.93-2.08-3.93-4.11-6-6-1.95-2.08-3.94-4.11-6.06-6.06-1.93-2.07-3.93-4.09-6-6-1.93-2.08-3.92-4.11-6-6-30.34-32.56-83.84-49.8-115.09-16.08a70.8,70.8,0,0,0-7.39,9.57A100.7,100.7,0,0,0,258,141.54a96.5,96.5,0,0,0-48,13c-1.22-1.26-2.49-2.46-3.78-3.56-.38-.44-.72-.92-1.11-1.34a54.13,54.13,0,0,0-4.94-4.68c-.37-.45-.7-.93-1.11-1.36-42.64-46-126.77,2.84-136.85,56.07C59.13,216.21,65.32,228.1,75.93,237a48,48,0,0,0,6,6,49,49,0,0,0,6,6,47.21,47.21,0,0,0,6.06,6,46.63,46.63,0,0,0,6,6,46.27,46.27,0,0,0,6,6,47.28,47.28,0,0,0,6.05,6,47.23,47.23,0,0,0,6,6.06,49.84,49.84,0,0,0,6,6,49.94,49.94,0,0,0,6.05,6,47.86,47.86,0,0,0,6.05,6.06,47.41,47.41,0,0,0,6,6,48.33,48.33,0,0,0,6,6,48.57,48.57,0,0,0,6,6,48.07,48.07,0,0,0,6.06,6.06,47,47,0,0,0,6,6,47.17,47.17,0,0,0,6.05,6,47.25,47.25,0,0,0,6,6.06,48.72,48.72,0,0,0,6,6,48.54,48.54,0,0,0,6,6,47.21,47.21,0,0,0,6.05,6,47.55,47.55,0,0,0,6,6.05,47.45,47.45,0,0,0,6,6,47,47,0,0,0,6.06,6.06,47.73,47.73,0,0,0,6,6,48.14,48.14,0,0,0,6.08,6.09,47.67,47.67,0,0,0,6,6,47.22,47.22,0,0,0,6.05,6.05,47.84,47.84,0,0,0,6,6,47.76,47.76,0,0,0,6,6,46.84,46.84,0,0,0,6.07,6.08,47.92,47.92,0,0,0,6,6,48.53,48.53,0,0,0,6.05,6.06,47.4,47.4,0,0,0,6,6,47.57,47.57,0,0,0,6,6.05,47.94,47.94,0,0,0,6,6,47.93,47.93,0,0,0,6,6,47.83,47.83,0,0,0,6,6,48.86,48.86,0,0,0,6.05,6.05,47.21,47.21,0,0,0,6,6,48,48,0,0,0,6.07,6.07,48,48,0,0,0,6,6,47,47,0,0,0,6.06,6.05,46.66,46.66,0,0,0,6,6c.53.64,1.11,1.23,1.68,1.85C438.9,464.64,512,368.88,512,256c0-4.25-.12-8.45-.31-12.64-1.67-1.75-3.36-3.49-5.15-5.14C504.6,236.15,502.59,234.11,500.49,232.17Z" fill="#e3e2e1" style="mix-blend-mode:multiply"/><g id="_12-2" data-name="12"><g id="icon"><path d="M94.45,203.25c-2.33,16.06,8.2,25,21.59,30.6a171.7,171.7,0,0,0,29.46,9.61c1.48.31,5.68,1.23,10.35,2C156,217,168.73,189.68,189,170.18a48.28,48.28,0,0,0-6.2-7.72C153.49,133.45,99.59,168,94.45,203.25Z" fill="#f6bb42"/><path d="M417.54,203.25c-5.13-35.28-59-69.8-88.36-40.79a45.84,45.84,0,0,0-3.91,4.42c20.13,18,33,43.9,35.2,72.66.13,1.72.21,3.41.23,5.11,2.68-.52,4.85-1,5.8-1.19A172.2,172.2,0,0,0,396,233.85C409.34,228.21,419.88,219.31,417.54,203.25Z" fill="#f6bb42"/><path d="M449.74,199.65c-10.07-53.23-94.21-102.08-136.85-56.07a70.8,70.8,0,0,0-7.39,9.57A100.7,100.7,0,0,0,258,141.54a97,97,0,0,0-50,14.07,73.59,73.59,0,0,0-9-12c-42.64-46-126.77,2.84-136.85,56.07C57.66,223.9,73.09,238.14,93,247.57a260,260,0,0,0,44.14,16.55c2.84.74,12.42,3.29,21.62,5,11,41.36,51.13,68.42,99.23,68.42,46.39,0,88.43-28.28,99.71-69.32,7.64-1.6,14.72-3.47,17.1-4.09A260.29,260.29,0,0,0,419,247.57C438.91,238.14,454.33,223.9,449.74,199.65ZM116,233.85c-13.39-5.64-23.92-14.54-21.59-30.6,5.14-35.28,59-69.8,88.37-40.79a48.28,48.28,0,0,1,6.2,7.72c-20.28,19.51-33,46.87-33.17,75.31-4.67-.79-8.87-1.72-10.35-2A171.7,171.7,0,0,1,116,233.85Zm279.93,0a172.2,172.2,0,0,1-29.46,9.61c-1,.2-3.12.67-5.8,1.19,0-1.69-.1-3.39-.23-5.11-2.17-28.76-15.07-54.71-35.2-72.66a45.84,45.84,0,0,1,3.91-4.42c29.32-29,83.23,5.51,88.36,40.79C419.88,219.31,409.34,228.21,396,233.85Z" fill="#ffce54"/><path d="M244.08,249.91c-27,10-30.32,41.82-16.56,65.51,5.74,9.88,10.36,18.19,12.69,29.61,2.1,10.33.13,21.56,4.6,31.2,5.46,11.8,17.53,13.93,26.07,5.08,7.56-7.85,6.46-21.55,8.29-31.67,4.56-25.07,20.11-52,13.93-78-4.63-19.54-32.47-28.18-48.72-21.75" fill="#f6bb42"/><path d="M297.87,212.41a12,12,0,0,0-5.33,1.27,5.91,5.91,0,0,1,.59,4,6.58,6.58,0,0,1-7.13,5.23,13.62,13.62,0,0,0-.15,1.42,11.95,11.95,0,1,0,12-11.88Z" fill="#7f4438"/><path d="M297.94,201.66a22.7,22.7,0,1,0,22.55,22.83A22.7,22.7,0,0,0,297.94,201.66Zm-.21,34.65a12,12,0,0,1-11.88-12,13.62,13.62,0,0,1,.15-1.42,6.58,6.58,0,0,0,7.13-5.23,5.91,5.91,0,0,0-.59-4,11.93,11.93,0,1,1,5.19,22.63Z" fill="#f4f0df"/><path d="M211,212.42a12,12,0,0,0-5.32,1.26,6,6,0,0,1,.6,4,6.58,6.58,0,0,1-7.13,5.23,13.63,13.63,0,0,0-.16,1.42,11.94,11.94,0,1,0,12-11.87Z" fill="#7f4438"/><path d="M211.1,201.66a22.69,22.69,0,1,0,22.56,22.83A22.7,22.7,0,0,0,211.1,201.66Zm-.21,34.65a12,12,0,0,1-11.88-12,13.63,13.63,0,0,1,.16-1.42,6.58,6.58,0,0,0,7.13-5.23,6,6,0,0,0-.6-4,11.93,11.93,0,1,1,5.19,22.63Z" fill="#f4f0df"/></g><path id="shadow" d="M270.88,381.31c7.56-7.85,6.46-21.55,8.29-31.67a146.48,146.48,0,0,1,3.68-14.86c35.9-8,65.67-33,74.88-66.56,7.64-1.6,14.72-3.47,17.1-4.09A260.29,260.29,0,0,0,419,247.57c19.94-9.42,35.36-23.67,30.77-47.92-10.07-53.23-94.21-102.08-136.85-56.07a70.8,70.8,0,0,0-7.39,9.57A100.7,100.7,0,0,0,258,141.54c-.68,0-1.35.07-2,.08V386.33C261,387.54,266.39,385.95,270.88,381.31Z" fill="#eeece7" style="mix-blend-mode:multiply"/></g></g></g></svg>