<svg xmlns="http://www.w3.org/2000/svg" viewBox="0 0 512 512"><title>monkey</title><g style="isolation:isolate"><g id="Layer_1" data-name="Layer 1"><path d="M512,256c0,141.37-114.61,256-256,256S0,397.38,0,256,114.62,0,256,0,512,114.62,512,256Z" fill="#37bc9b"/><path id="_13" data-name="13" d="M502.69,312.28c-.87-1-1.8-2-2.77-3l-.25-.26c-.82-.81-1.71-1.55-2.6-2.3-.14-.18-.27-.35-.42-.51-.87-1-1.8-2-2.77-3l-.25-.26c-.82-.8-1.71-1.56-2.61-2.31-.14-.17-.28-.35-.41-.53-.88-1-1.81-2-2.78-3l-.24-.25c-.82-.81-1.72-1.55-2.61-2.3-.14-.18-.27-.35-.41-.52a38,38,0,0,0-2.77-3l-.26-.26c-.83-.8-1.71-1.55-2.6-2.3-.14-.18-.28-.36-.42-.53-.87-1-1.82-2-2.77-3l-.25-.25c-.82-.8-1.7-1.57-2.6-2.3l-.41-.53c-.87-1-1.79-2-2.77-2.95l-.25-.27c-.82-.81-1.71-1.56-2.6-2.3-.14-.17-.27-.36-.42-.53-.88-1-1.81-2-2.77-3l-.26-.26c-.82-.8-1.7-1.55-2.6-2.3-.14-.18-.27-.36-.41-.53-.88-1-1.81-2-2.78-3l-.25-.26c-.82-.8-1.71-1.56-2.6-2.3-.15-.16-.27-.35-.42-.52-.88-1-1.8-2-2.77-3l-.24-.26c-.83-.81-1.72-1.56-2.61-2.31-.14-.17-.26-.35-.42-.53-.86-1-1.81-2-2.77-3l-.25-.26c-.82-.8-1.73-1.52-2.6-2.29-.14-.18-.27-.36-.42-.54-.87-1-1.81-2-2.77-3-.08-.08-.16-.18-.24-.27-.82-.8-1.73-1.54-2.61-2.29-.14-.17-.27-.34-.42-.52-.88-1-1.81-2-2.77-3l-.25-.26c-.83-.81-1.71-1.56-2.61-2.31-.14-.18-.27-.35-.41-.52-.87-1-1.81-2-2.77-3-.09-.1-.16-.19-.25-.27-1-1-2.15-2-3.29-2.91l-.06,0a52.58,52.58,0,0,0-18.11-9.41c-.88-.88-1.73-1.78-2.63-2.62q-2.94-3.17-6-6.05c-2-2.11-4-4.11-6-6-2-2.11-4-4.13-6.06-6.05-2-2.11-4-4.1-6-6-1.74-1.88-3.54-3.63-5.36-5.37-12.14-13.41-26.71-23-41.47-29.84a177.4,177.4,0,0,0-71.3-16.92c-3-.14-4.76-.12-4.76-.12v0l-1.28,0c-64.72,0-119.55,32.32-138.32,77C90.47,225,70.76,244.77,71.71,267.94c.48,11.9,6.34,22.47,15.42,30a46.05,46.05,0,0,0,6,6.05,46.25,46.25,0,0,0,6.09,6.08,46.1,46.1,0,0,0,5.94,5.92,45.49,45.49,0,0,0,6.11,6.13,45.6,45.6,0,0,0,6,6,44.85,44.85,0,0,0,6,6,45.57,45.57,0,0,0,6,6,45.55,45.55,0,0,0,6,6,45.25,45.25,0,0,0,6,6,46.42,46.42,0,0,0,6,6,46.61,46.61,0,0,0,6,6.05,46.17,46.17,0,0,0,6,6,46.23,46.23,0,0,0,6,6.05,45.73,45.73,0,0,0,6.06,6,45.09,45.09,0,0,0,6,6,45.59,45.59,0,0,0,6,6,46,46,0,0,0,6,6.05,46,46,0,0,0,6.08,6.07,46.16,46.16,0,0,0,5.94,5.92,46,46,0,0,0,6.11,6.13,46.29,46.29,0,0,0,6,6,45.67,45.67,0,0,0,6,6,47.24,47.24,0,0,0,6.09,6.09,46.21,46.21,0,0,0,5.94,5.91,46.79,46.79,0,0,0,6.11,6.13,46.28,46.28,0,0,0,6,6,46.09,46.09,0,0,0,6,6,46.18,46.18,0,0,0,6,6.05,46.26,46.26,0,0,0,6.06,6,45.79,45.79,0,0,0,6,6,45.9,45.9,0,0,0,6.06,6.07,45.3,45.3,0,0,0,6,6,46.6,46.6,0,0,0,6.05,6.07,46.31,46.31,0,0,0,6,6,43.13,43.13,0,0,0,5,5.11c102.29-16.73,184.12-94.07,207.54-193.95a22.86,22.86,0,0,0-2.2-2Z" fill="#e3e2e1" style="mix-blend-mode:multiply"/><g id="_13-2" data-name="13"><g id="icon"><path d="M71.71,267.94c1,24.36,24.4,43.22,52.29,42.08s49.69-21.8,48.71-46.16-24.41-43.23-52.29-42.09S70.71,243.58,71.71,267.94Z" fill="#7f4438"/><path d="M90.88,270.58c.72,17.61,17.66,31.26,37.85,30.44s36-15.78,35.26-33.41-17.66-31.3-37.85-30.46S90.17,252.93,90.88,270.58Z" fill="#f6bb42"/><path d="M440.29,267.94c-1,24.36-24.41,43.22-52.29,42.08s-49.7-21.8-48.71-46.16,24.41-43.23,52.3-42.09S441.27,243.58,440.29,267.94Z" fill="#7f4438"/><path d="M421.11,270.58c-.71,17.61-17.65,31.26-37.84,30.44s-36-15.78-35.27-33.41,17.66-31.3,37.86-30.46S421.82,252.93,421.11,270.58Z" fill="#f6bb42"/><path d="M400,256c0,61.21-65,110.84-145.26,110.84S109.46,317.22,109.46,256s65-110.86,145.25-110.86S400,194.77,400,256Z" fill="#7f4438"/><path d="M382.15,256c0-31.72-15.23-62.57-58.93-64.15-24.88-.9-39.67,22.92-68.29,23.76-28.6-.84-43.4-24.66-68.26-23.76C143,193.44,127.73,224.3,127.73,256c0,52.38,55.81,95.05,125.67,97.1v.1l1.54-.06,1.55.06v-.1C326.34,351.06,382.15,308.4,382.15,256Z" fill="#ffce54"/><path d="M249.85,282.05a6.14,6.14,0,1,1-6.15-6.15A6.14,6.14,0,0,1,249.85,282.05Z" fill="#7f4438"/><path d="M274.44,282.05a6.15,6.15,0,1,1-6.15-6.15A6.16,6.16,0,0,1,274.44,282.05Z" fill="#7f4438"/><path d="M274.49,312.8c-5.86.16-11.77-5.39-15.42-9.26V295.4h-6.15v8.14c-4.36,4.57-10.61,9.81-16.18,9.11-6-.79-9-6.09-9-5.69.3-.45,1.14,6.35,9.29,9.13,7.12,1.67,14.26-2.23,19-6.34,5.39,4.76,13.17,8.55,20.07,6.14,7.45-3.3,7.88-9.35,8.24-8.93C284.29,306.59,280.84,312.51,274.49,312.8ZM256,305.14Z" fill="#7f4438"/><path d="M202.9,231.28a11.4,11.4,0,0,0-1.3.15,6.31,6.31,0,0,1,2,6.12,7.32,7.32,0,0,1-8,5.82,6.19,6.19,0,0,1-4.42-2.84,13.94,13.94,0,0,0-.66,5.12,13.38,13.38,0,0,0,13.84,12.87c7.21-.42,12.7-6.85,12.27-14.36S210.11,230.86,202.9,231.28Z" fill="#7f4438"/><path d="M202.59,225.71c-10.17.57-17.92,9.64-17.31,20.24s9.34,18.71,19.5,18.14,17.92-9.64,17.3-20.24S212.75,225.13,202.59,225.71Zm1.72,30.43a11,11,0,0,1-11.43-10.64,11.46,11.46,0,0,1,.54-4.22,5.12,5.12,0,0,0,3.65,2.34,6,6,0,0,0,6.57-4.81,5.21,5.21,0,0,0-1.69-5,8,8,0,0,1,1.07-.13,11.28,11.28,0,0,1,1.28,22.5Z" fill="#f4f0df"/><path d="M309.16,231.3a13.08,13.08,0,0,0-2.73.15,6.26,6.26,0,0,1,2.28,6.3,7.28,7.28,0,0,1-7.94,5.81,6.18,6.18,0,0,1-4.68-3.31,14.34,14.34,0,0,0-.82,4,13.19,13.19,0,0,0,12.19,14.29c7.21.38,13.43-5.43,13.9-12.94A13.19,13.19,0,0,0,309.16,231.3Z" fill="#7f4438"/><path d="M309.5,225.72c-10.14-.53-18.91,7.63-19.58,18.23s7,19.61,17.2,20.14,18.91-7.63,19.58-18.22S319.67,226.24,309.5,225.72Zm9.59,19.75a11.19,11.19,0,0,1-11.47,10.69,10.91,10.91,0,0,1-10.09-11.82,11.44,11.44,0,0,1,.68-3.27,5.06,5.06,0,0,0,3.87,2.73,6,6,0,0,0,6.57-4.8,5.22,5.22,0,0,0-1.9-5.22,11.23,11.23,0,0,1,2.26-.13A10.91,10.91,0,0,1,319.1,245.47Z" fill="#f4f0df"/></g><path id="shadow" d="M392.93,221.88C358.91,144,256,145.15,256,145.15s-1.28,221.7,0,221.7c54.83,0,101.27-23.2,126-57.41a57.45,57.45,0,0,0,6,.59c27.88,1.14,51.3-17.72,52.29-42.08C441.26,244,420.15,223.62,392.93,221.88Z" fill="#eeece7" style="mix-blend-mode:multiply"/></g></g></g></svg>